<?xml version="1.0" encoding="utf-8"?>
<!-- Generator: Adobe Illustrator 21.0.2, SVG Export Plug-In . SVG Version: 6.00 Build 0)  -->
<svg version="1.1" id="Слой_1" xmlns="http://www.w3.org/2000/svg" xmlns:xlink="http://www.w3.org/1999/xlink" x="0px" y="0px"
	 viewBox="0 0 531.6 98.1" style="enable-background:new 0 0 531.6 98.1;" xml:space="preserve">
<g>
	<g>
		<path style="fill:#DDE1DD;" d="M258.7,2.5c0.5-1.4,1.8-2.4,3.2-2.5c1.5-0.2,2.9,0.5,3.7,1.8l15,23.8c0.7,1.1,1.8,1.8,3.1,1.8
			l28.1,1.1c1.5,0.1,2.8,0.9,3.4,2.3c0.6,1.3,0.4,2.9-0.6,4.1l-18,21.7c-0.8,1-1.1,2.3-0.8,3.5l7.6,27.1c0.4,1.4,0,2.9-1.1,3.9
			c-1.1,1-2.7,1.3-4,0.7l-26.2-10.4c-1.2-0.5-2.5-0.3-3.6,0.4l-23.4,15.6c-1.2,0.8-2.8,0.9-4.1,0.1c-1.3-0.7-2-2.1-1.9-3.6l1.8-28.1
			c0.1-1.3-0.5-2.5-1.5-3.3l-22.1-17.4c-1.2-0.9-1.7-2.4-1.4-3.8s1.4-2.6,2.8-2.9l27.3-6.9c1.2-0.3,2.2-1.2,2.7-2.4L258.7,2.5z"/>
	</g>
	<g>
		<path style="fill:#DDE1DD;" d="M42.7,2.5c0.5-1.4,1.8-2.4,3.2-2.5s2.9,0.5,3.7,1.8l15,23.8c0.7,1.1,1.8,1.8,3.1,1.8l28.1,1.1
			c1.5,0.1,2.8,0.9,3.4,2.3c0.6,1.3,0.4,2.9-0.6,4.1l-18,21.7c-0.8,1-1.1,2.3-0.8,3.5l7.6,27.1c0.4,1.4,0,2.9-1.1,3.9
			c-1.1,1-2.7,1.3-4,0.7L56.3,81.4c-1.2-0.5-2.5-0.3-3.6,0.4L29.2,97.4c-1.2,0.8-2.8,0.9-4.1,0.1c-1.3-0.7-2-2.1-1.9-3.6l1.8-28.1
			c0.1-1.3-0.5-2.5-1.5-3.3L1.5,45.1c-1.2-0.9-1.7-2.4-1.4-3.8s1.4-2.6,2.8-2.9l27.3-6.9c1.2-0.3,2.2-1.2,2.7-2.4L42.7,2.5z"/>
	</g>
	<g>
		<path style="fill:#DDE1DD;" d="M150.7,2.5c0.5-1.4,1.8-2.4,3.2-2.5c1.5-0.2,2.9,0.5,3.7,1.8l15,23.8c0.7,1.1,1.8,1.8,3.1,1.8
			l28.1,1.1c1.5,0.1,2.8,0.9,3.4,2.3c0.6,1.3,0.4,2.9-0.6,4.1l-18,21.7c-0.8,1-1.1,2.3-0.8,3.5l7.6,27.1c0.4,1.4,0,2.9-1.1,3.9
			c-1.1,1-2.7,1.3-4,0.7l-26.2-10.4c-1.2-0.5-2.5-0.3-3.6,0.4l-23.4,15.6c-1.2,0.8-2.8,0.9-4.1,0.1c-1.3-0.7-2-2.1-1.9-3.6l1.8-28.1
			c0.1-1.3-0.5-2.5-1.5-3.3l-22.1-17.4c-1.2-0.9-1.7-2.4-1.4-3.8c0.3-1.4,1.4-2.6,2.8-2.9l27.3-6.9c1.2-0.3,2.2-1.2,2.7-2.4
			L150.7,2.5z"/>
	</g>
	<g>
		<path style="fill:#DDE1DD;" d="M366.7,2.5c0.5-1.4,1.8-2.4,3.2-2.5c1.5-0.2,2.9,0.5,3.7,1.8l15,23.8c0.7,1.1,1.8,1.8,3.1,1.8
			l28.1,1.1c1.5,0.1,2.8,0.9,3.4,2.3c0.6,1.3,0.4,2.9-0.6,4.1l-18,21.7c-0.8,1-1.1,2.3-0.8,3.5l7.6,27.1c0.4,1.4,0,2.9-1.1,3.9
			c-1.1,1-2.7,1.3-4,0.7l-26.2-10.4c-1.2-0.5-2.5-0.3-3.6,0.4l-23.4,15.6c-1.2,0.8-2.8,0.9-4.1,0.1c-1.3-0.7-2-2.1-1.9-3.6l1.8-28.1
			c0.1-1.3-0.5-2.5-1.5-3.3l-22.1-17.4c-1.2-0.9-1.7-2.4-1.4-3.8c0.3-1.4,1.4-2.6,2.8-2.9l27.3-6.9c1.2-0.3,2.2-1.2,2.7-2.4
			L366.7,2.5z"/>
	</g>
	<g>
		<path style="fill:#DDE1DD;" d="M474.7,2.5c0.5-1.4,1.8-2.4,3.2-2.5c1.5-0.2,2.9,0.5,3.7,1.8l15,23.8c0.7,1.1,1.8,1.8,3.1,1.8
			l28.1,1.1c1.5,0.1,2.8,0.9,3.4,2.3c0.6,1.3,0.4,2.9-0.6,4.1l-18,21.7c-0.8,1-1.1,2.3-0.8,3.5l7.6,27.1c0.4,1.4,0,2.9-1.1,3.9
			c-1.1,1-2.7,1.3-4,0.7l-26.2-10.4c-1.2-0.5-2.5-0.3-3.6,0.4l-23.4,15.6c-1.2,0.8-2.8,0.9-4.1,0.1c-1.3-0.7-2-2.1-1.9-3.6l1.8-28.1
			c0.1-1.3-0.5-2.5-1.5-3.3l-22.1-17.4c-1.2-0.9-1.7-2.4-1.4-3.8c0.3-1.4,1.4-2.6,2.8-2.9l27.3-6.9c1.2-0.3,2.2-1.2,2.7-2.4
			L474.7,2.5z"/>
	</g>
</g>
</svg>
